<svg width="202" height="180" viewBox="0 0 202 180" fill="none" xmlns="http://www.w3.org/2000/svg">
<rect width="202" height="180" rx="20" fill="#192026"/>
<path fill-rule="evenodd" clip-rule="evenodd" d="M148.415 32.7H150.792V31H113.1V32.7H115.138C117.628 32.7 119.552 33.8333 120.91 36.1C121.703 37.3467 122.099 38.5367 122.099 39.67C122.099 40.8033 121.816 41.9367 121.25 43.07L120.218 44.884C114.288 45.0532 109.203 46.179 104.964 48.2615C102.787 49.3077 100.785 50.5282 98.9561 51.9231C97.2147 53.318 95.7781 54.8436 94.6462 56.5C93.5143 58.1564 92.513 59.9 91.6423 61.7308C90.7716 63.4744 90.1622 65.2615 89.8139 67.0923C89.5527 68.9231 89.3786 70.3615 89.2915 71.4077C89.2044 72.4538 89.1609 73.4128 89.1609 74.2846C89.1609 75.0692 89.335 76.0282 89.6833 77.1615L90.9893 76.9C90.8152 75.941 90.7281 74.6769 90.7281 73.1077C90.7281 71.5385 91.0764 69.6641 91.7729 67.4846C94.2108 60.0744 99.2173 54.7564 106.792 51.5308C110.193 50.041 113.911 49.1574 117.946 48.8799L94.0846 90.84L77.8844 60.5611C80.2935 56.4199 83.4428 53.061 87.3324 50.4846L86.5488 49.3077C82.4928 51.3601 78.9065 53.8063 75.7898 56.6462L68.6171 43.24C68.0512 42.1067 67.7682 40.9733 67.7682 39.84C67.7682 38.5933 68.1077 37.3467 68.7869 36.1C70.1451 33.8333 72.0694 32.7 74.5595 32.7H76.7667V31H35V32.7H37.377C40.7726 32.7 43.9985 33.6633 47.0546 35.59C50.2239 37.5167 52.6575 39.84 54.3553 42.56L68.2183 65.7429C68.1018 65.9301 67.9866 66.1184 67.8727 66.3077C63.5192 73.5436 61.3425 81.8256 61.3425 91.1539C61.3425 105.626 66.349 117.395 76.3618 126.462C79.5758 129.347 83.0498 131.773 86.7839 133.74V137.76C86.6707 140.707 85.5388 143.2 83.3882 145.24C81.3508 147.28 78.8607 148.3 75.9178 148.3H73.7106V150H110.723V148.3H108.686C105.63 148.3 103.027 147.28 100.876 145.24C98.9392 143.193 97.9229 140.788 97.8273 138.024C102.956 139.382 108.469 140.062 114.367 140.062C129.604 140.062 142.186 135.528 152.111 126.462C162.037 117.308 167 105.844 167 92.0692C167 78.2949 162.777 67.0051 154.332 58.2C147.648 51.09 139.379 46.8225 129.523 45.3974L131.267 42.56C133.305 39.7267 135.795 37.4033 138.738 35.59C141.794 33.6633 145.02 32.7 148.415 32.7ZM127.159 49.242L97.8198 96.96V133.304C102.776 135.194 108.248 136.138 114.237 136.138C126.774 136.138 137.005 131.997 144.928 123.715C152.938 115.346 156.944 104.362 156.944 90.7615C156.944 78.9923 153.766 69.0539 147.41 60.9462C142.356 54.4109 135.606 50.5095 127.159 49.242ZM86.7839 126.845V96.79L73.0448 73.8142C71.9475 78.744 71.3989 83.8701 71.3989 89.1923C71.3989 103.926 75.4041 115.433 83.4144 123.715C84.4963 124.834 85.6194 125.877 86.7839 126.845Z" fill="white"/>
</svg>
